<svg xmlns="http://www.w3.org/2000/svg" width="8000" height="8000" viewBox="0 0 8000 8000">
  <defs>
    <style>
      .cls-1 {
        fill: #66b0f1;
      }

      .cls-1, .cls-2 {
        fill-rule: evenodd;
      }

      .cls-2 {
        fill: #fff;
      }
    </style>
  </defs>
  <path id="Cercle.svg" class="cls-1" d="M4000,31.409c2184.34,0,3955.11,1777.221,3955.11,3969.541S6184.34,7970.5,4000,7970.5,44.893,6193.27,44.893,4000.95,1815.66,31.409,4000,31.409Z"/>
  <path class="cls-2" d="M1305.66,5326.52c248.45,0,449.87,200.88,449.87,448.67s-201.42,448.67-449.87,448.67-449.867-200.88-449.867-448.67S1057.21,5326.52,1305.66,5326.52Z"/>
  <path id="Fond_2" data-name="Fond 2" class="cls-2" d="M5903,2881c11.27,5.44,17.05,18.15,26,26q40.5,40.995,81,82-870.915,869.91-1742,1740-156.48-155.985-313-312-301.47-301.965-603-604h-2L1658,5508c-5.35-12.04-22.05-22-32-30-27.5-22.1-50.76-55.69-82-73,0.33-.67.67-1.33,1-2,16.87-6.59,31.62-29.62,44-42l99-99,348-348q657.435-656.43,1315-1313c17.72,7.4,58.43,58.28,75,74q87.495,86.985,175,174,333.465,332.46,667,665h2Z"/>
  <path id="Fond_1" data-name="Fond 1" class="cls-2" d="M6871,1963c1.33,0.67,2.67,1.33,4,2-19.71,56.17-33.1,118.22-50,178q-68.49,252.48-137,505-110.49,405.96-221,812c-15.88-5.24-71.54-71.47-87-87q-92.49-93.495-185-187l-569-575q-123.99-125.985-248-252,543.45-143.985,1087-288,145.485-38.49,291-77C6780.92,1986.4,6855.57,1975.61,6871,1963Z"/>
</svg>
