<svg id="svg" version="1.1" xmlns="http://www.w3.org/2000/svg" xmlns:xlink="http://www.w3.org/1999/xlink" width="400" height="89.88326848249028" viewBox="0, 0, 400,89.88326848249028"><g id="svgg"><path id="path0" d="M37.617 0.124 C 36.820 0.165,36.456 0.254,36.391 0.424 C 36.325 0.595,36.031 0.667,35.399 0.667 C 34.904 0.667,34.500 0.742,34.500 0.833 C 34.500 0.925,34.162 1.000,33.750 1.000 C 33.337 1.000,33.000 1.075,33.000 1.167 C 33.000 1.258,32.735 1.333,32.411 1.333 C 32.042 1.333,31.787 1.426,31.727 1.583 C 31.668 1.738,31.414 1.833,31.066 1.833 C 30.754 1.833,30.500 1.908,30.500 2.000 C 30.500 2.092,30.279 2.167,30.010 2.167 C 29.740 2.167,29.473 2.242,29.417 2.333 C 29.360 2.425,29.091 2.500,28.818 2.500 C 28.532 2.500,28.282 2.605,28.227 2.750 C 28.174 2.887,27.989 3.000,27.816 3.000 C 27.642 3.000,27.500 3.075,27.500 3.167 C 27.500 3.258,27.279 3.333,27.010 3.333 C 26.740 3.333,26.473 3.408,26.417 3.500 C 26.360 3.592,26.166 3.667,25.985 3.667 C 25.804 3.667,25.613 3.779,25.560 3.917 C 25.508 4.054,25.327 4.167,25.159 4.167 C 24.991 4.167,24.807 4.242,24.750 4.333 C 24.693 4.425,24.501 4.500,24.323 4.500 C 24.146 4.500,24.000 4.575,24.000 4.667 C 24.000 4.758,23.861 4.833,23.690 4.833 C 23.520 4.833,23.239 5.021,23.067 5.250 C 22.895 5.479,22.585 5.667,22.377 5.667 C 22.170 5.667,22.000 5.742,22.000 5.833 C 22.000 5.925,21.861 6.000,21.690 6.000 C 21.520 6.000,21.239 6.188,21.067 6.417 C 20.895 6.646,20.641 6.836,20.502 6.839 C 20.175 6.846,19.667 7.233,19.667 7.477 C 19.667 7.581,19.496 7.667,19.287 7.667 C 19.078 7.667,18.799 7.817,18.667 8.000 C 18.535 8.183,18.328 8.333,18.208 8.333 C 18.088 8.333,17.946 8.446,17.894 8.583 C 17.841 8.721,17.710 8.833,17.602 8.833 C 17.495 8.833,17.299 8.983,17.167 9.167 C 17.035 9.350,16.830 9.500,16.713 9.500 C 16.596 9.500,16.500 9.612,16.500 9.750 C 16.500 9.889,16.352 10.000,16.167 10.000 C 15.983 10.000,15.833 10.062,15.833 10.139 C 15.833 10.215,15.646 10.377,15.417 10.500 C 15.188 10.623,15.000 10.791,15.000 10.873 C 15.000 11.046,14.577 11.500,14.417 11.500 C 14.278 11.500,13.833 11.944,13.833 12.083 C 13.833 12.222,13.389 12.667,13.250 12.667 C 13.111 12.667,12.667 13.111,12.667 13.250 C 12.667 13.389,12.222 13.833,12.083 13.833 C 11.944 13.833,11.500 14.278,11.500 14.417 C 11.500 14.562,11.053 15.000,10.905 15.000 C 10.731 15.000,10.345 15.548,10.339 15.804 C 10.332 16.071,9.925 16.500,9.679 16.500 C 9.580 16.500,9.500 16.596,9.500 16.713 C 9.500 16.830,9.350 17.035,9.167 17.167 C 8.983 17.299,8.833 17.578,8.833 17.787 C 8.833 17.996,8.753 18.167,8.655 18.167 C 8.424 18.167,8.000 18.591,8.000 18.821 C 8.000 18.920,7.925 19.000,7.833 19.000 C 7.742 19.000,7.667 19.150,7.667 19.333 C 7.667 19.519,7.556 19.667,7.417 19.667 C 7.279 19.667,7.167 19.779,7.167 19.917 C 7.167 20.054,7.092 20.167,7.000 20.167 C 6.908 20.167,6.833 20.317,6.833 20.500 C 6.833 20.683,6.758 20.833,6.667 20.833 C 6.575 20.833,6.500 21.021,6.500 21.250 C 6.500 21.479,6.420 21.667,6.321 21.667 C 6.027 21.667,5.667 22.119,5.667 22.488 C 5.667 22.678,5.592 22.833,5.500 22.833 C 5.408 22.833,5.333 22.983,5.333 23.167 C 5.333 23.352,5.222 23.500,5.083 23.500 C 4.928 23.500,4.833 23.657,4.833 23.917 C 4.833 24.146,4.758 24.333,4.667 24.333 C 4.575 24.333,4.500 24.521,4.500 24.750 C 4.500 24.979,4.425 25.167,4.333 25.167 C 4.242 25.167,4.167 25.309,4.167 25.482 C 4.167 25.656,4.054 25.841,3.917 25.894 C 3.779 25.946,3.667 26.142,3.667 26.328 C 3.667 26.514,3.592 26.667,3.500 26.667 C 3.408 26.667,3.333 26.850,3.333 27.073 C 3.333 27.297,3.258 27.527,3.167 27.583 C 3.075 27.640,3.000 27.907,3.000 28.177 C 3.000 28.501,2.916 28.667,2.750 28.667 C 2.575 28.667,2.500 28.843,2.500 29.250 C 2.500 29.571,2.425 29.833,2.333 29.833 C 2.242 29.833,2.167 30.096,2.167 30.417 C 2.167 30.738,2.092 31.000,2.000 31.000 C 1.908 31.000,1.833 31.262,1.833 31.583 C 1.833 31.991,1.758 32.167,1.583 32.167 C 1.410 32.167,1.333 32.341,1.333 32.740 C 1.333 33.056,1.258 33.360,1.167 33.417 C 1.075 33.473,1.000 33.848,1.000 34.250 C 1.000 34.652,0.925 35.027,0.833 35.083 C 0.742 35.140,0.667 35.632,0.667 36.177 C 0.667 36.895,0.605 37.167,0.442 37.167 C -0.171 37.167,-0.153 52.755,0.461 52.959 C 0.593 53.003,0.667 53.380,0.667 54.014 C 0.667 54.560,0.741 55.000,0.833 55.000 C 0.925 55.000,1.000 55.337,1.000 55.750 C 1.000 56.163,1.075 56.500,1.167 56.500 C 1.258 56.500,1.333 56.753,1.333 57.063 C 1.333 57.373,1.446 57.719,1.583 57.833 C 1.721 57.947,1.833 58.290,1.833 58.594 C 1.833 58.898,1.908 59.193,2.000 59.250 C 2.092 59.307,2.167 59.574,2.167 59.843 C 2.167 60.113,2.242 60.333,2.333 60.333 C 2.425 60.333,2.500 60.521,2.500 60.750 C 2.500 61.009,2.594 61.167,2.750 61.167 C 2.925 61.167,3.000 61.343,3.000 61.750 C 3.000 62.071,3.075 62.333,3.167 62.333 C 3.258 62.333,3.333 62.521,3.333 62.750 C 3.333 62.979,3.408 63.167,3.500 63.167 C 3.592 63.167,3.667 63.354,3.667 63.583 C 3.667 63.843,3.761 64.000,3.917 64.000 C 4.056 64.000,4.167 64.148,4.167 64.333 C 4.167 64.517,4.242 64.667,4.333 64.667 C 4.425 64.667,4.500 64.854,4.500 65.083 C 4.500 65.313,4.575 65.500,4.667 65.500 C 4.758 65.500,4.833 65.688,4.833 65.917 C 4.833 66.176,4.928 66.333,5.083 66.333 C 5.222 66.333,5.333 66.481,5.333 66.667 C 5.333 66.850,5.408 67.000,5.500 67.000 C 5.592 67.000,5.667 67.188,5.667 67.417 C 5.667 67.646,5.742 67.833,5.833 67.833 C 5.925 67.833,6.000 67.973,6.000 68.143 C 6.000 68.314,6.187 68.594,6.417 68.766 C 6.646 68.938,6.833 69.217,6.833 69.385 C 6.833 69.721,7.207 70.167,7.488 70.167 C 7.586 70.167,7.667 70.338,7.667 70.547 C 7.667 70.755,7.817 71.035,8.000 71.167 C 8.183 71.299,8.333 71.500,8.333 71.615 C 8.333 71.729,8.596 72.085,8.917 72.406 C 9.237 72.726,9.500 73.066,9.500 73.161 C 9.500 73.256,9.612 73.333,9.750 73.333 C 9.889 73.333,10.000 73.481,10.000 73.667 C 10.000 73.850,10.075 74.000,10.167 74.000 C 10.258 74.000,10.333 74.080,10.333 74.179 C 10.333 74.373,10.744 74.833,10.917 74.833 C 11.056 74.833,11.500 75.278,11.500 75.417 C 11.500 75.556,11.944 76.000,12.083 76.000 C 12.222 76.000,12.667 76.444,12.667 76.583 C 12.667 76.722,13.111 77.167,13.250 77.167 C 13.389 77.167,13.833 77.611,13.833 77.750 C 13.833 77.889,14.278 78.333,14.417 78.333 C 14.556 78.333,15.000 78.778,15.000 78.917 C 15.000 79.056,15.444 79.500,15.583 79.500 C 15.756 79.500,16.167 79.961,16.167 80.155 C 16.167 80.253,16.322 80.333,16.511 80.333 C 16.702 80.333,17.177 80.668,17.575 81.083 C 17.970 81.496,18.415 81.833,18.563 81.833 C 18.712 81.833,18.833 81.908,18.833 82.000 C 18.833 82.092,18.946 82.167,19.083 82.167 C 19.221 82.167,19.333 82.279,19.333 82.417 C 19.333 82.556,19.481 82.667,19.667 82.667 C 19.850 82.667,20.000 82.742,20.000 82.833 C 20.000 82.925,20.112 83.000,20.250 83.000 C 20.387 83.000,20.500 83.075,20.500 83.167 C 20.500 83.258,20.642 83.333,20.816 83.333 C 20.989 83.333,21.167 83.427,21.211 83.542 C 21.302 83.778,22.585 84.500,22.915 84.500 C 23.034 84.500,23.174 84.612,23.227 84.750 C 23.280 84.887,23.475 85.000,23.661 85.000 C 23.848 85.000,24.000 85.075,24.000 85.167 C 24.000 85.258,24.150 85.333,24.333 85.333 C 24.517 85.333,24.667 85.408,24.667 85.500 C 24.667 85.592,24.854 85.667,25.083 85.667 C 25.343 85.667,25.500 85.761,25.500 85.917 C 25.500 86.072,25.657 86.167,25.917 86.167 C 26.146 86.167,26.333 86.242,26.333 86.333 C 26.333 86.425,26.479 86.500,26.657 86.500 C 26.835 86.500,27.027 86.575,27.083 86.667 C 27.140 86.758,27.399 86.833,27.659 86.833 C 27.925 86.833,28.173 86.942,28.227 87.083 C 28.280 87.221,28.475 87.333,28.661 87.333 C 28.848 87.333,29.000 87.408,29.000 87.500 C 29.000 87.592,29.262 87.667,29.583 87.667 C 29.904 87.667,30.167 87.742,30.167 87.833 C 30.167 87.925,30.429 88.000,30.750 88.000 C 31.157 88.000,31.333 88.075,31.333 88.250 C 31.333 88.424,31.508 88.500,31.907 88.500 C 32.222 88.500,32.527 88.575,32.583 88.667 C 32.640 88.758,32.977 88.833,33.333 88.833 C 33.689 88.833,34.027 88.908,34.083 89.000 C 34.140 89.092,34.594 89.167,35.093 89.167 C 35.759 89.167,36.000 89.229,36.000 89.400 C 36.000 89.972,53.324 90.028,53.954 89.458 C 54.164 89.268,54.547 89.167,55.055 89.167 C 55.483 89.167,55.833 89.092,55.833 89.000 C 55.833 88.908,56.171 88.833,56.583 88.833 C 56.996 88.833,57.333 88.758,57.333 88.667 C 57.333 88.575,57.596 88.500,57.917 88.500 C 58.324 88.500,58.500 88.425,58.500 88.250 C 58.500 88.075,58.676 88.000,59.083 88.000 C 59.404 88.000,59.667 87.925,59.667 87.833 C 59.667 87.742,59.929 87.667,60.250 87.667 C 60.571 87.667,60.833 87.592,60.833 87.500 C 60.833 87.408,61.021 87.333,61.250 87.333 C 61.509 87.333,61.667 87.239,61.667 87.083 C 61.667 86.909,61.843 86.833,62.250 86.833 C 62.571 86.833,62.833 86.758,62.833 86.667 C 62.833 86.575,63.021 86.500,63.250 86.500 C 63.479 86.500,63.667 86.425,63.667 86.333 C 63.667 86.242,63.817 86.167,64.000 86.167 C 64.185 86.167,64.333 86.056,64.333 85.917 C 64.333 85.761,64.491 85.667,64.750 85.667 C 64.979 85.667,65.167 85.592,65.167 85.500 C 65.167 85.408,65.354 85.333,65.583 85.333 C 65.813 85.333,66.000 85.258,66.000 85.167 C 66.000 85.075,66.150 85.000,66.333 85.000 C 66.519 85.000,66.667 84.889,66.667 84.750 C 66.667 84.594,66.824 84.500,67.083 84.500 C 67.313 84.500,67.500 84.425,67.500 84.333 C 67.500 84.242,67.650 84.167,67.833 84.167 C 68.017 84.167,68.167 84.092,68.167 84.000 C 68.167 83.908,68.279 83.833,68.417 83.833 C 68.554 83.833,68.667 83.721,68.667 83.583 C 68.667 83.434,68.820 83.333,69.047 83.333 C 69.255 83.333,69.535 83.183,69.667 83.000 C 69.799 82.817,70.030 82.667,70.180 82.667 C 70.330 82.667,70.594 82.479,70.766 82.250 C 70.938 82.021,71.202 81.833,71.352 81.833 C 71.502 81.833,71.848 81.571,72.123 81.250 C 72.397 80.929,72.706 80.667,72.810 80.667 C 72.915 80.667,73.000 80.592,73.000 80.500 C 73.000 80.408,73.150 80.333,73.333 80.333 C 73.519 80.333,73.667 80.222,73.667 80.083 C 73.667 79.946,73.745 79.833,73.841 79.833 C 74.067 79.833,74.833 79.067,74.833 78.841 C 74.833 78.745,74.912 78.667,75.008 78.667 C 75.234 78.667,76.000 77.900,76.000 77.674 C 76.000 77.578,76.078 77.500,76.174 77.500 C 76.400 77.500,77.167 76.734,77.167 76.508 C 77.167 76.412,77.245 76.333,77.341 76.333 C 77.567 76.333,78.333 75.567,78.333 75.341 C 78.333 75.245,78.412 75.167,78.508 75.167 C 78.734 75.167,79.500 74.400,79.500 74.174 C 79.500 74.078,79.594 74.000,79.709 74.000 C 79.824 74.000,80.026 73.756,80.157 73.458 C 80.405 72.896,80.724 72.500,80.928 72.500 C 81.112 72.500,81.489 71.945,81.495 71.665 C 81.498 71.526,81.688 71.272,81.917 71.100 C 82.146 70.927,82.333 70.664,82.333 70.513 C 82.333 70.363,82.483 70.132,82.667 70.000 C 82.850 69.868,83.000 69.589,83.000 69.380 C 83.000 69.171,83.085 69.000,83.190 69.000 C 83.446 69.000,83.821 68.485,83.828 68.125 C 83.831 67.965,83.908 67.833,84.000 67.833 C 84.092 67.833,84.167 67.646,84.167 67.417 C 84.167 67.157,84.261 67.000,84.417 67.000 C 84.556 67.000,84.667 66.852,84.667 66.667 C 84.667 66.483,84.723 66.333,84.792 66.332 C 84.923 66.331,85.333 65.539,85.333 65.288 C 85.333 65.208,85.446 65.030,85.583 64.893 C 85.721 64.755,85.833 64.498,85.833 64.321 C 85.833 64.145,85.908 64.000,86.000 64.000 C 86.092 64.000,86.167 63.813,86.167 63.583 C 86.167 63.354,86.242 63.167,86.333 63.167 C 86.425 63.167,86.500 62.979,86.500 62.750 C 86.500 62.491,86.594 62.333,86.750 62.333 C 86.925 62.333,87.000 62.157,87.000 61.750 C 87.000 61.429,87.075 61.167,87.167 61.167 C 87.258 61.167,87.333 61.021,87.333 60.843 C 87.333 60.665,87.408 60.473,87.500 60.417 C 87.592 60.360,87.667 60.101,87.667 59.841 C 87.667 59.575,87.776 59.327,87.917 59.273 C 88.072 59.213,88.167 58.959,88.167 58.598 C 88.167 58.280,88.242 57.973,88.333 57.917 C 88.425 57.860,88.500 57.518,88.500 57.157 C 88.500 56.796,88.575 56.500,88.667 56.500 C 88.758 56.500,88.833 56.171,88.833 55.768 C 88.833 55.271,88.914 55.005,89.083 54.940 C 89.264 54.870,89.333 54.588,89.333 53.922 C 89.333 53.415,89.408 53.000,89.500 53.000 C 89.597 53.000,89.667 52.444,89.667 51.667 C 89.667 50.889,89.736 50.333,89.833 50.333 C 89.941 50.333,90.000 48.448,90.000 45.010 C 90.000 41.641,89.939 39.649,89.833 39.583 C 89.742 39.527,89.667 38.964,89.667 38.333 C 89.667 37.702,89.592 37.140,89.500 37.083 C 89.408 37.027,89.333 36.581,89.333 36.094 C 89.333 35.509,89.248 35.137,89.083 35.000 C 88.931 34.873,88.833 34.508,88.833 34.063 C 88.833 33.662,88.758 33.333,88.667 33.333 C 88.575 33.333,88.500 33.071,88.500 32.750 C 88.500 32.429,88.425 32.167,88.333 32.167 C 88.242 32.167,88.167 31.913,88.167 31.604 C 88.167 31.294,88.054 30.947,87.917 30.833 C 87.779 30.719,87.667 30.448,87.667 30.230 C 87.667 30.012,87.592 29.833,87.500 29.833 C 87.408 29.833,87.333 29.571,87.333 29.250 C 87.333 28.929,87.258 28.667,87.167 28.667 C 87.075 28.667,87.000 28.439,87.000 28.161 C 87.000 27.866,86.896 27.616,86.750 27.560 C 86.612 27.508,86.500 27.285,86.500 27.066 C 86.500 26.846,86.425 26.667,86.333 26.667 C 86.242 26.667,86.167 26.479,86.167 26.250 C 86.167 26.021,86.092 25.833,86.000 25.833 C 85.908 25.833,85.833 25.683,85.833 25.500 C 85.833 25.315,85.722 25.167,85.583 25.167 C 85.428 25.167,85.333 25.009,85.333 24.750 C 85.333 24.521,85.258 24.333,85.167 24.333 C 85.075 24.333,85.000 24.188,85.000 24.010 C 85.000 23.832,84.925 23.640,84.833 23.583 C 84.742 23.527,84.667 23.335,84.667 23.157 C 84.667 22.979,84.554 22.833,84.417 22.833 C 84.268 22.833,84.167 22.680,84.167 22.453 C 84.167 22.245,84.017 21.965,83.833 21.833 C 83.650 21.701,83.500 21.422,83.500 21.213 C 83.500 20.987,83.399 20.833,83.250 20.833 C 83.112 20.833,83.000 20.697,83.000 20.531 C 83.000 20.365,82.850 20.069,82.667 19.872 C 82.483 19.675,82.333 19.451,82.333 19.375 C 82.333 19.299,82.071 18.958,81.750 18.618 C 81.429 18.278,81.167 17.897,81.167 17.773 C 81.167 17.649,80.979 17.406,80.750 17.234 C 80.521 17.062,80.333 16.844,80.333 16.750 C 80.333 16.656,80.146 16.438,79.917 16.266 C 79.688 16.094,79.500 15.848,79.500 15.719 C 79.500 15.447,78.764 14.667,78.508 14.667 C 78.412 14.667,78.333 14.588,78.333 14.492 C 78.333 14.266,77.567 13.500,77.341 13.500 C 77.245 13.500,77.167 13.422,77.167 13.326 C 77.167 13.100,76.400 12.333,76.174 12.333 C 76.078 12.333,76.000 12.255,76.000 12.159 C 76.000 11.933,75.234 11.167,75.008 11.167 C 74.912 11.167,74.833 11.082,74.833 10.978 C 74.833 10.702,73.966 10.000,73.625 10.000 C 73.465 10.000,73.333 9.920,73.333 9.821 C 73.333 9.610,72.917 9.167,72.718 9.167 C 72.642 9.167,72.438 8.979,72.266 8.750 C 72.094 8.521,71.830 8.333,71.680 8.333 C 71.530 8.333,71.299 8.183,71.167 8.000 C 71.035 7.817,70.755 7.667,70.547 7.667 C 70.338 7.667,70.167 7.586,70.167 7.488 C 70.167 7.218,69.726 6.833,69.417 6.833 C 69.107 6.833,68.667 6.449,68.667 6.179 C 68.667 6.080,68.479 6.000,68.250 6.000 C 68.021 6.000,67.833 5.925,67.833 5.833 C 67.833 5.742,67.683 5.667,67.500 5.667 C 67.317 5.667,67.167 5.592,67.167 5.500 C 67.167 5.408,67.054 5.333,66.917 5.333 C 66.779 5.333,66.667 5.264,66.667 5.179 C 66.667 5.001,65.725 4.500,65.391 4.500 C 65.268 4.500,65.167 4.425,65.167 4.333 C 65.167 4.242,64.979 4.167,64.750 4.167 C 64.491 4.167,64.333 4.072,64.333 3.917 C 64.333 3.761,64.176 3.667,63.917 3.667 C 63.688 3.667,63.500 3.608,63.500 3.536 C 63.500 3.465,63.294 3.389,63.042 3.368 C 62.790 3.347,62.558 3.256,62.528 3.165 C 62.497 3.074,62.291 3.000,62.069 3.000 C 61.823 3.000,61.667 2.903,61.667 2.750 C 61.667 2.575,61.491 2.500,61.083 2.500 C 60.762 2.500,60.500 2.425,60.500 2.333 C 60.500 2.242,60.237 2.167,59.917 2.167 C 59.596 2.167,59.333 2.092,59.333 2.000 C 59.333 1.908,59.071 1.833,58.750 1.833 C 58.343 1.833,58.167 1.758,58.167 1.583 C 58.167 1.409,57.991 1.333,57.583 1.333 C 57.262 1.333,57.000 1.258,57.000 1.167 C 57.000 1.075,56.663 1.000,56.250 1.000 C 55.837 1.000,55.500 0.925,55.500 0.833 C 55.500 0.741,55.056 0.667,54.500 0.667 C 53.772 0.667,53.500 0.605,53.500 0.442 C 53.500 0.055,43.017 -0.155,37.617 0.124 M77.663 21.976 C 77.657 22.135,77.417 23.055,76.919 24.833 C 76.675 25.704,76.414 26.679,76.338 27.000 C 76.216 27.515,75.626 29.657,75.145 31.333 C 75.053 31.654,74.917 32.179,74.842 32.500 C 74.767 32.821,74.578 33.533,74.422 34.083 C 73.940 35.779,73.167 38.672,73.167 38.777 C 73.167 39.191,72.181 38.384,70.152 36.307 L 67.684 33.782 57.892 43.557 C 52.507 48.934,48.056 53.333,48.002 53.333 C 47.948 53.333,45.621 51.046,42.831 48.250 C 40.040 45.454,37.708 43.167,37.649 43.167 C 37.239 43.167,18.700 62.097,18.882 62.328 C 20.733 64.677,19.303 68.841,16.250 69.990 C 11.811 71.661,7.456 66.688,9.803 62.627 C 11.164 60.272,13.984 59.195,16.250 60.167 C 16.678 60.350,17.089 60.500,17.163 60.500 C 17.238 60.500,21.842 55.962,27.394 50.417 C 32.946 44.871,37.547 40.333,37.618 40.333 C 37.690 40.333,40.055 42.639,42.874 45.458 L 48.001 50.582 57.124 41.459 L 66.248 32.335 63.350 29.433 C 60.482 26.562,60.093 26.000,60.972 26.000 C 61.146 26.000,62.142 25.769,63.186 25.486 C 64.230 25.203,65.346 24.910,65.667 24.834 C 66.350 24.674,68.515 24.102,71.667 23.250 C 72.904 22.916,74.179 22.580,74.500 22.504 C 75.518 22.263,77.067 21.822,77.134 21.755 C 77.226 21.662,77.667 21.847,77.663 21.976 M124.917 28.000 C 124.860 28.092,124.115 28.167,123.258 28.167 C 122.029 28.167,121.682 28.219,121.606 28.417 C 121.537 28.597,121.254 28.667,120.589 28.667 C 120.082 28.667,119.667 28.742,119.667 28.833 C 119.667 28.925,119.404 29.000,119.083 29.000 C 118.763 29.000,118.500 29.075,118.500 29.167 C 118.500 29.258,118.322 29.333,118.104 29.333 C 117.886 29.333,117.614 29.446,117.500 29.583 C 117.386 29.721,117.156 29.833,116.989 29.833 C 116.823 29.833,116.640 29.908,116.583 30.000 C 116.527 30.092,116.335 30.167,116.157 30.167 C 115.979 30.167,115.833 30.242,115.833 30.333 C 115.833 30.425,115.729 30.500,115.601 30.500 C 115.473 30.500,115.326 30.613,115.273 30.750 C 115.220 30.887,115.062 31.000,114.922 31.000 C 114.782 31.000,114.667 31.075,114.667 31.167 C 114.667 31.258,114.589 31.333,114.493 31.333 C 114.294 31.333,113.964 31.586,113.458 32.125 C 113.265 32.331,113.008 32.500,112.887 32.500 C 112.766 32.500,112.667 32.617,112.667 32.760 C 112.667 32.903,112.592 32.973,112.500 32.917 C 112.408 32.860,112.333 32.901,112.333 33.008 C 112.333 33.115,112.146 33.350,111.917 33.530 C 111.688 33.710,111.500 33.970,111.500 34.107 C 111.500 34.364,111.116 34.833,110.905 34.833 C 110.709 34.833,110.344 35.396,110.339 35.708 C 110.336 35.869,110.258 36.000,110.167 36.000 C 110.075 36.000,110.000 36.188,110.000 36.417 C 110.000 36.676,109.906 36.833,109.750 36.833 C 109.611 36.833,109.500 36.981,109.500 37.167 C 109.500 37.350,109.425 37.500,109.333 37.500 C 109.242 37.500,109.167 37.688,109.167 37.917 C 109.167 38.146,109.092 38.333,109.000 38.333 C 108.908 38.333,108.833 38.588,108.833 38.899 C 108.833 39.248,108.738 39.501,108.583 39.560 C 108.419 39.623,108.333 39.884,108.333 40.318 C 108.333 40.682,108.258 41.027,108.167 41.083 C 108.064 41.147,108.000 42.526,108.000 44.667 C 108.000 46.807,108.064 48.187,108.167 48.250 C 108.258 48.307,108.333 48.688,108.333 49.098 C 108.333 49.607,108.413 49.874,108.583 49.940 C 108.738 49.999,108.833 50.252,108.833 50.601 C 108.833 50.912,108.908 51.167,109.000 51.167 C 109.092 51.167,109.167 51.317,109.167 51.500 C 109.167 51.683,109.242 51.833,109.333 51.833 C 109.425 51.833,109.500 52.021,109.500 52.250 C 109.500 52.509,109.594 52.667,109.750 52.667 C 109.906 52.667,110.000 52.824,110.000 53.083 C 110.000 53.313,110.075 53.500,110.167 53.500 C 110.258 53.500,110.333 53.650,110.333 53.833 C 110.333 54.017,110.408 54.167,110.500 54.167 C 110.592 54.167,110.667 54.279,110.667 54.417 C 110.667 54.554,110.779 54.667,110.917 54.667 C 111.054 54.667,111.167 54.743,111.167 54.836 C 111.167 55.078,111.890 56.162,112.054 56.165 C 112.239 56.167,112.667 56.606,112.667 56.793 C 112.667 56.876,112.854 57.044,113.083 57.167 C 113.313 57.289,113.500 57.452,113.500 57.528 C 113.500 57.604,113.604 57.667,113.732 57.667 C 113.860 57.667,114.008 57.779,114.060 57.917 C 114.113 58.054,114.237 58.167,114.335 58.167 C 114.433 58.167,114.675 58.317,114.872 58.500 C 115.069 58.683,115.365 58.833,115.531 58.833 C 115.697 58.833,115.833 58.946,115.833 59.083 C 115.833 59.221,115.979 59.333,116.157 59.333 C 116.335 59.333,116.527 59.408,116.583 59.500 C 116.640 59.592,116.832 59.667,117.010 59.667 C 117.188 59.667,117.333 59.742,117.333 59.833 C 117.333 59.925,117.596 60.000,117.917 60.000 C 118.324 60.000,118.500 60.075,118.500 60.250 C 118.500 60.425,118.676 60.500,119.083 60.500 C 119.404 60.500,119.667 60.575,119.667 60.667 C 119.667 60.758,120.042 60.833,120.500 60.833 C 120.958 60.833,121.333 60.908,121.333 61.000 C 121.333 61.100,122.022 61.167,123.066 61.167 C 124.489 61.167,124.816 61.214,124.899 61.429 C 125.030 61.772,127.777 61.719,127.708 61.375 C 127.677 61.219,128.108 61.167,129.427 61.167 C 130.557 61.167,131.150 61.107,131.083 61.000 C 131.019 60.897,131.332 60.833,131.907 60.833 C 132.416 60.833,132.833 60.758,132.833 60.667 C 132.833 60.575,133.096 60.500,133.417 60.500 C 133.824 60.500,134.000 60.425,134.000 60.250 C 134.000 60.094,134.157 60.000,134.417 60.000 C 134.646 60.000,134.833 59.925,134.833 59.833 C 134.833 59.742,135.021 59.667,135.250 59.667 C 135.479 59.667,135.667 59.592,135.667 59.500 C 135.667 59.408,135.817 59.333,136.000 59.333 C 136.185 59.333,136.333 59.222,136.333 59.083 C 136.333 58.934,136.487 58.833,136.713 58.833 C 136.922 58.833,137.201 58.683,137.333 58.500 C 137.465 58.317,137.697 58.167,137.847 58.167 C 137.997 58.167,138.261 57.979,138.433 57.750 C 138.605 57.521,138.808 57.333,138.885 57.333 C 139.083 57.333,139.500 56.890,139.500 56.679 C 139.500 56.580,139.575 56.500,139.667 56.500 C 139.775 56.500,139.833 54.000,139.833 49.333 L 139.833 42.167 131.667 42.167 C 124.519 42.167,123.500 42.198,123.500 42.417 C 123.500 42.554,123.425 42.667,123.333 42.667 C 123.049 42.667,123.116 47.807,123.405 48.095 C 123.600 48.290,124.478 48.333,128.238 48.333 L 132.833 48.333 132.832 50.875 L 132.831 53.417 132.382 53.625 C 132.135 53.740,131.834 53.833,131.712 53.833 C 131.589 53.833,131.446 53.946,131.394 54.083 C 131.334 54.238,131.081 54.333,130.732 54.333 C 130.421 54.333,130.167 54.408,130.167 54.500 C 130.167 54.605,129.031 54.667,127.093 54.667 C 125.224 54.667,123.979 54.601,123.917 54.500 C 123.860 54.408,123.565 54.333,123.261 54.333 C 122.956 54.333,122.614 54.221,122.500 54.083 C 122.386 53.946,122.114 53.833,121.896 53.833 C 121.678 53.833,121.500 53.758,121.500 53.667 C 121.500 53.575,121.350 53.500,121.167 53.500 C 120.983 53.500,120.833 53.425,120.833 53.333 C 120.833 53.242,120.646 53.167,120.417 53.167 C 120.157 53.167,120.000 53.072,120.000 52.917 C 120.000 52.778,119.852 52.667,119.667 52.667 C 119.483 52.667,119.333 52.592,119.333 52.500 C 119.333 52.408,119.256 52.333,119.162 52.333 C 118.966 52.333,117.333 50.784,117.333 50.598 C 117.333 50.413,116.881 50.000,116.679 50.000 C 116.580 50.000,116.500 49.813,116.500 49.583 C 116.500 49.354,116.425 49.167,116.333 49.167 C 116.242 49.167,116.167 49.017,116.167 48.833 C 116.167 48.650,116.092 48.500,116.000 48.500 C 115.908 48.500,115.833 48.348,115.833 48.161 C 115.833 47.975,115.721 47.780,115.583 47.727 C 115.421 47.665,115.333 47.406,115.333 46.992 C 115.333 46.641,115.258 46.307,115.167 46.250 C 115.074 46.193,115.000 45.418,115.000 44.500 C 115.000 43.582,115.074 42.807,115.167 42.750 C 115.258 42.693,115.333 42.351,115.333 41.990 C 115.333 41.629,115.403 41.333,115.488 41.333 C 115.666 41.333,116.167 40.392,116.167 40.058 C 116.167 39.934,116.242 39.833,116.333 39.833 C 116.425 39.833,116.500 39.646,116.500 39.417 C 116.500 39.188,116.572 39.000,116.659 39.000 C 116.866 39.000,117.667 38.199,117.667 37.992 C 117.667 37.905,117.724 37.833,117.793 37.833 C 117.863 37.833,118.219 37.572,118.585 37.253 C 118.951 36.934,119.344 36.672,119.458 36.670 C 119.573 36.668,119.667 36.592,119.667 36.500 C 119.667 36.408,119.817 36.333,120.000 36.333 C 120.183 36.333,120.333 36.258,120.333 36.167 C 120.333 36.075,120.521 36.000,120.750 36.000 C 121.009 36.000,121.167 35.906,121.167 35.750 C 121.167 35.594,121.324 35.500,121.583 35.500 C 121.813 35.500,122.000 35.425,122.000 35.333 C 122.000 35.242,122.296 35.167,122.657 35.167 C 123.018 35.167,123.360 35.092,123.417 35.000 C 123.479 34.898,124.752 34.833,126.677 34.833 C 128.670 34.833,129.833 34.895,129.833 35.000 C 129.833 35.092,130.166 35.167,130.573 35.167 C 130.981 35.167,131.360 35.242,131.417 35.333 C 131.473 35.425,131.732 35.500,131.992 35.500 C 132.258 35.500,132.506 35.609,132.560 35.750 C 132.616 35.896,132.866 36.000,133.161 36.000 C 133.439 36.000,133.667 36.075,133.667 36.167 C 133.667 36.258,133.854 36.333,134.083 36.333 C 134.313 36.333,134.500 36.408,134.500 36.500 C 134.500 36.592,134.642 36.667,134.816 36.667 C 134.989 36.667,135.174 36.779,135.227 36.917 C 135.283 37.063,135.533 37.167,135.828 37.167 C 136.166 37.167,136.333 37.084,136.333 36.917 C 136.333 36.779,136.446 36.667,136.583 36.667 C 136.722 36.667,136.833 36.519,136.833 36.333 C 136.833 36.150,136.908 36.000,137.000 36.000 C 137.092 36.000,137.167 35.813,137.167 35.583 C 137.167 35.354,137.242 35.167,137.333 35.167 C 137.425 35.167,137.500 34.979,137.500 34.750 C 137.500 34.517,137.597 34.333,137.719 34.333 C 137.839 34.333,138.041 34.071,138.167 33.750 C 138.293 33.429,138.457 33.167,138.531 33.167 C 138.606 33.167,138.667 33.023,138.667 32.847 C 138.667 32.672,138.744 32.502,138.838 32.471 C 139.213 32.346,139.105 31.420,138.708 31.364 C 138.502 31.334,138.333 31.240,138.333 31.155 C 138.333 31.070,138.221 31.000,138.083 31.000 C 137.946 31.000,137.833 30.936,137.833 30.859 C 137.833 30.781,137.515 30.586,137.125 30.425 C 136.735 30.264,136.286 30.065,136.127 29.983 C 135.968 29.901,135.687 29.833,135.502 29.833 C 135.315 29.833,135.167 29.723,135.167 29.583 C 135.167 29.409,134.991 29.333,134.583 29.333 C 134.262 29.333,134.000 29.258,134.000 29.167 C 134.000 29.075,133.737 29.000,133.417 29.000 C 133.096 29.000,132.833 28.925,132.833 28.833 C 132.833 28.742,132.465 28.667,132.014 28.667 C 131.506 28.667,131.168 28.587,131.125 28.458 C 131.077 28.314,130.519 28.233,129.320 28.194 C 128.365 28.164,127.512 28.070,127.425 27.986 C 127.210 27.779,125.046 27.791,124.917 28.000 M179.458 28.514 C 179.185 28.813,179.167 29.828,179.167 44.833 L 179.167 60.833 182.667 60.833 L 186.167 60.833 186.167 54.833 L 186.167 48.833 190.339 48.833 C 193.893 48.833,194.525 48.796,194.606 48.583 C 194.677 48.401,194.964 48.333,195.675 48.333 C 196.209 48.333,196.693 48.258,196.750 48.167 C 196.807 48.075,197.149 48.000,197.510 48.000 C 197.871 48.000,198.167 47.925,198.167 47.833 C 198.167 47.742,198.349 47.667,198.571 47.667 C 198.794 47.667,199.089 47.554,199.226 47.417 C 199.364 47.279,199.542 47.167,199.622 47.167 C 199.872 47.167,200.664 46.756,200.665 46.625 C 200.666 46.556,200.817 46.500,201.000 46.500 C 201.185 46.500,201.333 46.389,201.333 46.250 C 201.333 46.112,201.412 46.000,201.508 46.000 C 201.734 46.000,202.500 45.234,202.500 45.008 C 202.500 44.912,202.578 44.833,202.674 44.833 C 202.971 44.833,203.667 44.033,203.667 43.692 C 203.667 43.514,203.779 43.326,203.917 43.273 C 204.054 43.220,204.167 43.025,204.167 42.839 C 204.167 42.652,204.242 42.500,204.333 42.500 C 204.425 42.500,204.500 42.237,204.500 41.917 C 204.500 41.596,204.575 41.333,204.667 41.333 C 204.764 41.333,204.833 40.782,204.833 40.014 C 204.833 39.157,204.901 38.672,205.028 38.630 C 205.141 38.592,205.222 38.223,205.222 37.750 C 205.222 37.277,205.141 36.908,205.028 36.870 C 204.907 36.830,204.833 36.405,204.833 35.746 C 204.833 35.163,204.758 34.640,204.667 34.583 C 204.575 34.527,204.500 34.302,204.500 34.083 C 204.500 33.865,204.425 33.640,204.333 33.583 C 204.242 33.527,204.167 33.332,204.167 33.152 C 204.167 32.971,204.054 32.780,203.917 32.727 C 203.779 32.674,203.667 32.527,203.667 32.399 C 203.667 32.271,203.592 32.167,203.500 32.167 C 203.408 32.167,203.333 32.086,203.333 31.988 C 203.333 31.794,202.923 31.333,202.750 31.333 C 202.577 31.333,202.167 30.873,202.167 30.679 C 202.167 30.580,202.054 30.500,201.917 30.500 C 201.779 30.500,201.667 30.425,201.667 30.333 C 201.667 30.242,201.517 30.167,201.333 30.167 C 201.150 30.167,201.000 30.092,201.000 30.000 C 201.000 29.908,200.813 29.833,200.583 29.833 C 200.324 29.833,200.167 29.739,200.167 29.583 C 200.167 29.429,200.010 29.333,199.760 29.333 C 199.536 29.333,199.307 29.258,199.250 29.167 C 199.193 29.075,198.851 29.000,198.490 29.000 C 198.129 29.000,197.833 28.925,197.833 28.833 C 197.833 28.738,197.333 28.667,196.667 28.667 C 195.741 28.667,195.500 28.615,195.500 28.417 C 195.500 27.979,179.860 28.074,179.458 28.514 M215.000 28.417 C 215.000 28.554,214.925 28.667,214.833 28.667 C 214.723 28.667,214.667 34.139,214.667 44.750 L 214.667 60.833 226.333 60.833 L 238.000 60.833 238.000 57.750 C 238.000 55.120,237.963 54.667,237.750 54.667 C 237.612 54.667,237.500 54.592,237.500 54.500 C 237.500 54.391,234.750 54.333,229.583 54.333 L 221.667 54.333 221.667 51.000 L 221.667 47.667 229.000 47.667 C 235.407 47.667,236.333 47.635,236.333 47.417 C 236.333 47.279,236.446 47.167,236.583 47.167 C 237.027 47.167,236.947 41.338,236.498 40.954 C 236.192 40.692,235.532 40.667,228.915 40.667 L 221.667 40.667 221.667 37.752 L 221.667 34.837 229.792 34.793 L 237.917 34.750 237.968 31.841 C 237.996 30.241,237.976 28.760,237.923 28.549 L 237.827 28.167 226.413 28.167 C 216.379 28.167,215.000 28.197,215.000 28.417 M249.120 28.502 C 248.853 28.814,248.833 29.938,248.833 44.835 L 248.833 60.833 252.333 60.833 L 255.833 60.833 255.833 54.833 L 255.833 48.833 258.000 48.833 C 260.056 48.833,260.167 48.850,260.167 49.167 C 260.167 49.350,260.242 49.500,260.333 49.500 C 260.425 49.500,260.500 49.612,260.500 49.750 C 260.500 49.887,260.594 50.000,260.709 50.000 C 260.824 50.000,261.026 50.244,261.157 50.542 C 261.428 51.156,261.726 51.500,261.988 51.500 C 262.086 51.500,262.167 51.643,262.167 51.817 C 262.167 51.991,262.429 52.396,262.750 52.717 C 263.071 53.037,263.333 53.403,263.333 53.530 C 263.333 53.656,263.483 53.868,263.667 54.000 C 263.850 54.132,264.000 54.336,264.000 54.453 C 264.000 54.571,264.079 54.667,264.177 54.667 C 264.274 54.667,264.315 54.728,264.269 54.803 C 264.222 54.878,264.331 55.045,264.509 55.173 C 264.687 55.302,264.833 55.503,264.833 55.620 C 264.833 55.737,264.908 55.833,265.000 55.833 C 265.092 55.833,265.167 55.983,265.167 56.167 C 265.167 56.352,265.278 56.500,265.417 56.500 C 265.554 56.500,265.667 56.578,265.667 56.674 C 265.667 56.769,265.817 57.008,266.000 57.205 C 266.183 57.402,266.333 57.699,266.333 57.865 C 266.333 58.031,266.414 58.167,266.512 58.167 C 266.769 58.167,267.167 58.602,267.167 58.884 C 267.167 59.016,267.429 59.348,267.750 59.623 C 268.079 59.904,268.333 60.276,268.333 60.477 C 268.333 60.937,276.475 61.049,276.929 60.595 C 277.200 60.324,277.251 59.667,277.000 59.667 C 276.908 59.667,276.833 59.550,276.833 59.408 C 276.833 59.266,276.571 58.880,276.250 58.550 C 275.929 58.219,275.667 57.843,275.667 57.713 C 275.667 57.434,275.268 57.000,275.012 57.000 C 274.914 57.000,274.833 56.850,274.833 56.667 C 274.833 56.483,274.758 56.333,274.667 56.333 C 274.575 56.333,274.500 56.239,274.500 56.123 C 274.500 56.007,274.313 55.772,274.083 55.600 C 273.854 55.427,273.667 55.164,273.667 55.013 C 273.667 54.863,273.517 54.632,273.333 54.500 C 273.150 54.368,272.999 54.183,272.997 54.088 C 272.995 53.994,272.733 53.617,272.413 53.252 C 272.094 52.886,271.833 52.490,271.833 52.372 C 271.833 52.253,271.721 52.113,271.583 52.060 C 271.446 52.008,271.333 51.860,271.333 51.732 C 271.333 51.604,271.267 51.500,271.186 51.500 C 271.104 51.500,270.922 51.256,270.779 50.958 C 270.637 50.660,270.366 50.306,270.177 50.172 C 269.988 50.037,269.833 49.793,269.833 49.630 C 269.833 49.467,269.758 49.333,269.667 49.333 C 269.575 49.333,269.500 49.221,269.500 49.083 C 269.500 48.946,269.420 48.833,269.321 48.833 C 268.966 48.833,268.667 48.344,268.667 47.762 C 268.667 47.238,268.717 47.167,269.083 47.167 C 269.313 47.167,269.500 47.092,269.500 47.000 C 269.500 46.908,269.650 46.833,269.833 46.833 C 270.017 46.833,270.167 46.758,270.167 46.667 C 270.167 46.575,270.306 46.500,270.477 46.500 C 270.647 46.500,270.927 46.313,271.100 46.083 C 271.272 45.854,271.475 45.667,271.551 45.667 C 271.712 45.667,272.167 45.239,272.167 45.088 C 272.167 45.032,272.354 44.783,272.583 44.536 C 272.813 44.289,273.000 43.992,273.000 43.877 C 273.000 43.761,273.075 43.667,273.167 43.667 C 273.258 43.667,273.333 43.517,273.333 43.333 C 273.333 43.150,273.408 43.000,273.500 43.000 C 273.592 43.000,273.667 42.821,273.667 42.601 C 273.667 42.382,273.779 42.159,273.917 42.106 C 274.072 42.047,274.167 41.792,274.167 41.432 C 274.167 41.113,274.242 40.807,274.333 40.750 C 274.434 40.688,274.500 39.529,274.500 37.833 C 274.500 36.137,274.434 34.979,274.333 34.917 C 274.242 34.860,274.167 34.591,274.167 34.318 C 274.167 34.032,274.061 33.782,273.917 33.727 C 273.779 33.674,273.667 33.452,273.667 33.232 C 273.667 33.013,273.592 32.833,273.500 32.833 C 273.408 32.833,273.333 32.683,273.333 32.500 C 273.333 32.317,273.258 32.167,273.167 32.167 C 273.075 32.167,273.000 32.054,273.000 31.917 C 273.000 31.779,272.887 31.667,272.750 31.667 C 272.612 31.667,272.500 31.559,272.500 31.428 C 272.500 31.297,272.350 31.142,272.167 31.083 C 271.983 31.025,271.833 30.870,271.833 30.739 C 271.833 30.607,271.737 30.500,271.620 30.500 C 271.503 30.500,271.299 30.350,271.167 30.167 C 271.035 29.983,270.755 29.833,270.547 29.833 C 270.338 29.833,270.167 29.737,270.167 29.620 C 270.167 29.502,269.810 29.310,269.375 29.192 C 268.940 29.074,268.453 28.908,268.294 28.822 C 268.135 28.737,267.638 28.667,267.189 28.667 C 266.668 28.667,266.299 28.577,266.167 28.417 C 265.794 27.967,249.508 28.049,249.120 28.502 M286.458 28.514 C 286.185 28.813,286.167 29.828,286.167 44.833 L 286.167 60.833 289.667 60.833 L 293.167 60.833 293.167 54.250 L 293.167 47.667 300.296 47.667 C 307.233 47.667,307.434 47.658,307.713 47.331 C 308.118 46.859,308.152 41.000,307.750 41.000 C 307.612 41.000,307.500 40.925,307.500 40.833 C 307.500 40.725,305.000 40.667,300.333 40.667 L 293.167 40.667 293.167 37.750 L 293.167 34.833 301.167 34.833 C 308.167 34.833,309.167 34.802,309.167 34.583 C 309.167 34.446,309.242 34.333,309.333 34.333 C 309.438 34.333,309.500 33.278,309.500 31.500 C 309.500 29.722,309.438 28.667,309.333 28.667 C 309.242 28.667,309.167 28.554,309.167 28.417 C 309.167 27.978,286.860 28.073,286.458 28.514 M193.083 35.000 C 193.140 35.092,193.632 35.167,194.177 35.167 C 194.726 35.167,195.167 35.241,195.167 35.333 C 195.167 35.425,195.346 35.500,195.566 35.500 C 195.785 35.500,196.008 35.612,196.060 35.750 C 196.113 35.887,196.271 36.000,196.411 36.000 C 196.552 36.000,196.667 36.075,196.667 36.167 C 196.667 36.258,196.747 36.333,196.845 36.333 C 197.107 36.333,197.500 36.770,197.500 37.062 C 197.500 37.200,197.575 37.360,197.667 37.417 C 197.758 37.473,197.833 37.965,197.833 38.510 C 197.833 39.059,197.759 39.500,197.667 39.500 C 197.575 39.500,197.500 39.655,197.500 39.845 C 197.500 40.214,197.139 40.667,196.845 40.667 C 196.747 40.667,196.667 40.742,196.667 40.833 C 196.667 40.925,196.552 41.000,196.411 41.000 C 196.271 41.000,196.113 41.112,196.060 41.250 C 196.008 41.387,195.785 41.500,195.566 41.500 C 195.346 41.500,195.167 41.575,195.167 41.667 C 195.167 41.758,194.871 41.833,194.510 41.833 C 194.149 41.833,193.807 41.908,193.750 42.000 C 193.686 42.103,192.220 42.167,189.907 42.167 L 186.167 42.167 186.167 38.500 L 186.167 34.833 189.573 34.833 C 191.665 34.833,193.020 34.898,193.083 35.000 M263.333 35.000 C 263.333 35.092,263.671 35.167,264.083 35.167 C 264.496 35.167,264.833 35.242,264.833 35.333 C 264.833 35.425,265.021 35.500,265.250 35.500 C 265.509 35.500,265.667 35.594,265.667 35.750 C 265.667 35.889,265.815 36.000,266.000 36.000 C 266.183 36.000,266.333 36.075,266.333 36.167 C 266.333 36.258,266.446 36.333,266.583 36.333 C 266.739 36.333,266.833 36.491,266.833 36.750 C 266.833 36.979,266.908 37.167,267.000 37.167 C 267.097 37.167,267.167 37.722,267.167 38.500 C 267.167 39.278,267.097 39.833,267.000 39.833 C 266.908 39.833,266.833 40.021,266.833 40.250 C 266.833 40.479,266.755 40.667,266.660 40.667 C 266.496 40.667,266.308 40.797,265.756 41.292 C 265.628 41.406,265.410 41.500,265.272 41.500 C 265.133 41.500,264.973 41.575,264.917 41.667 C 264.860 41.758,264.560 41.833,264.250 41.833 C 263.940 41.833,263.640 41.908,263.583 42.000 C 263.520 42.103,262.026 42.167,259.657 42.167 L 255.833 42.167 255.833 38.500 L 255.833 34.833 259.583 34.833 C 261.972 34.833,263.333 34.894,263.333 35.000 M147.333 42.833 C 147.333 42.925,147.221 43.000,147.083 43.000 C 146.824 43.000,146.692 47.939,146.934 48.570 C 147.025 48.806,148.157 48.833,158.018 48.833 L 169.000 48.833 169.000 45.750 L 169.000 42.667 158.167 42.667 C 151.056 42.667,147.333 42.724,147.333 42.833 " stroke="none" fill="#63b3f3" fill-rule="evenodd"></path><path id="path1" d="M76.417 22.361 C 76.142 22.453,75.654 22.590,75.333 22.667 C 75.012 22.744,74.000 23.007,73.083 23.253 C 72.167 23.498,71.229 23.734,71.000 23.778 C 70.771 23.822,70.433 23.922,70.250 24.000 C 70.067 24.078,69.729 24.179,69.500 24.224 C 69.271 24.270,68.633 24.430,68.083 24.579 C 67.001 24.874,66.291 25.059,65.250 25.317 C 64.883 25.407,64.133 25.604,63.583 25.754 C 63.033 25.904,62.396 26.065,62.167 26.113 C 60.719 26.416,60.654 26.279,63.708 29.356 C 65.244 30.903,66.500 32.263,66.500 32.379 C 66.500 32.645,48.307 50.833,48.042 50.833 C 47.934 50.833,45.547 48.541,42.737 45.739 L 37.629 40.644 37.217 41.030 C 36.991 41.243,32.444 45.784,27.111 51.122 C 21.562 56.677,17.288 60.828,17.117 60.830 C 16.952 60.832,16.577 60.707,16.283 60.553 C 15.455 60.118,13.288 60.169,12.367 60.644 C 10.540 61.589,9.500 63.199,9.500 65.083 C 9.500 66.486,10.063 67.727,11.140 68.694 C 15.348 72.473,21.698 67.146,18.607 62.430 L 18.298 61.958 27.949 52.303 L 37.599 42.648 42.675 47.738 C 45.466 50.538,47.860 52.830,47.995 52.831 C 48.130 52.832,52.574 48.502,57.871 43.208 C 63.167 37.915,67.561 33.563,67.635 33.538 C 67.764 33.495,72.248 37.926,72.518 38.363 C 72.759 38.752,72.969 38.271,73.515 36.083 C 73.607 35.717,73.748 35.154,73.828 34.833 C 73.908 34.512,74.098 33.837,74.251 33.333 C 74.403 32.829,74.564 32.229,74.610 32.000 C 74.655 31.771,74.751 31.433,74.824 31.250 C 75.015 30.769,75.686 28.179,75.786 27.540 C 75.832 27.241,75.937 26.956,76.018 26.905 C 76.100 26.855,76.167 26.657,76.167 26.464 C 76.167 26.070,76.950 23.237,77.182 22.794 C 77.516 22.156,77.338 22.055,76.417 22.361 M334.833 28.417 C 334.833 28.554,334.758 28.667,334.667 28.667 C 334.557 28.667,334.500 34.139,334.500 44.750 L 334.500 60.833 338.000 60.833 L 341.500 60.833 341.500 54.250 L 341.500 47.667 348.667 47.667 C 354.926 47.667,355.833 47.635,355.833 47.417 C 355.833 47.279,355.908 47.167,356.000 47.167 C 356.286 47.167,356.218 41.194,355.929 40.905 C 355.730 40.706,354.522 40.667,348.595 40.667 L 341.500 40.667 341.500 37.750 L 341.500 34.833 349.417 34.833 C 356.343 34.833,357.333 34.802,357.333 34.583 C 357.333 34.446,357.446 34.333,357.583 34.333 C 357.796 34.333,357.833 33.907,357.833 31.500 C 357.833 29.093,357.796 28.667,357.583 28.667 C 357.446 28.667,357.333 28.554,357.333 28.417 C 357.333 28.197,355.972 28.167,346.083 28.167 C 336.194 28.167,334.833 28.197,334.833 28.417 M368.333 28.417 C 368.333 28.554,368.258 28.667,368.167 28.667 C 368.057 28.667,368.000 34.139,368.000 44.750 L 368.000 60.833 371.417 60.833 L 374.833 60.833 374.833 54.833 L 374.833 48.833 377.000 48.833 C 378.835 48.833,379.167 48.872,379.167 49.089 C 379.167 49.229,379.279 49.387,379.417 49.440 C 379.554 49.492,379.667 49.640,379.667 49.768 C 379.667 49.896,379.742 50.000,379.833 50.000 C 379.925 50.000,380.000 50.106,380.000 50.236 C 380.000 50.365,380.262 50.742,380.583 51.072 C 380.904 51.402,381.169 51.765,381.172 51.878 C 381.178 52.122,381.570 52.667,381.739 52.667 C 381.958 52.667,382.333 53.140,382.333 53.417 C 382.333 53.726,382.718 54.167,382.988 54.167 C 383.086 54.167,383.167 54.303,383.167 54.469 C 383.167 54.635,383.317 54.931,383.500 55.128 C 383.683 55.325,383.833 55.564,383.833 55.660 C 383.833 55.755,383.946 55.833,384.083 55.833 C 384.222 55.833,384.333 55.981,384.333 56.167 C 384.333 56.350,384.408 56.500,384.500 56.500 C 384.592 56.500,384.667 56.578,384.667 56.674 C 384.667 56.770,384.854 57.050,385.083 57.297 C 385.313 57.544,385.500 57.825,385.500 57.920 C 385.500 58.015,385.650 58.201,385.833 58.333 C 386.017 58.465,386.167 58.667,386.167 58.781 C 386.167 58.895,386.422 59.244,386.734 59.556 C 387.045 59.868,387.328 60.264,387.361 60.436 C 387.430 60.798,395.833 61.029,395.833 60.670 C 395.833 60.576,395.946 60.500,396.083 60.500 C 396.224 60.500,396.333 60.351,396.333 60.161 C 396.333 59.975,396.221 59.780,396.083 59.727 C 395.946 59.674,395.833 59.489,395.833 59.316 C 395.833 59.142,395.758 59.000,395.667 59.000 C 395.575 59.000,395.500 58.915,395.500 58.811 C 395.500 58.707,395.313 58.448,395.083 58.235 C 394.854 58.023,394.667 57.750,394.667 57.628 C 394.667 57.506,394.517 57.299,394.333 57.167 C 394.150 57.035,394.000 56.846,394.000 56.748 C 394.000 56.650,393.738 56.291,393.417 55.951 C 393.096 55.611,392.833 55.231,392.833 55.106 C 392.833 54.982,392.646 54.739,392.417 54.567 C 392.188 54.395,392.000 54.122,392.000 53.960 C 392.000 53.799,391.925 53.667,391.833 53.667 C 391.742 53.667,391.667 53.554,391.667 53.417 C 391.667 53.279,391.554 53.167,391.417 53.167 C 391.279 53.167,391.167 53.054,391.167 52.917 C 391.167 52.779,391.092 52.667,391.000 52.667 C 390.908 52.667,390.833 52.517,390.833 52.333 C 390.833 52.150,390.758 52.000,390.667 52.000 C 390.575 52.000,390.500 51.887,390.500 51.750 C 390.500 51.612,390.415 51.500,390.310 51.500 C 390.078 51.500,389.679 50.998,389.672 50.696 C 389.666 50.429,389.259 50.000,389.012 50.000 C 388.914 50.000,388.833 49.850,388.833 49.667 C 388.833 49.483,388.758 49.333,388.667 49.333 C 388.575 49.333,388.500 49.239,388.500 49.123 C 388.500 49.007,388.313 48.772,388.083 48.600 C 387.784 48.374,387.667 48.129,387.667 47.727 C 387.667 47.240,387.722 47.167,388.083 47.167 C 388.313 47.167,388.500 47.092,388.500 47.000 C 388.500 46.908,388.688 46.833,388.917 46.833 C 389.146 46.833,389.333 46.758,389.333 46.667 C 389.333 46.575,389.448 46.500,389.589 46.500 C 389.729 46.500,389.887 46.387,389.940 46.250 C 389.992 46.112,390.106 46.000,390.192 46.000 C 390.405 46.000,391.167 45.224,391.167 45.008 C 391.167 44.912,391.252 44.833,391.357 44.833 C 391.613 44.833,391.988 44.319,391.995 43.958 C 391.998 43.798,392.075 43.667,392.167 43.667 C 392.258 43.667,392.333 43.517,392.333 43.333 C 392.333 43.148,392.444 43.000,392.583 43.000 C 392.739 43.000,392.833 42.843,392.833 42.583 C 392.833 42.354,392.908 42.167,393.000 42.167 C 393.092 42.167,393.167 41.909,393.167 41.593 C 393.167 41.278,393.242 40.973,393.333 40.917 C 393.434 40.854,393.500 39.668,393.500 37.917 C 393.500 36.165,393.434 34.979,393.333 34.917 C 393.242 34.860,393.167 34.556,393.167 34.240 C 393.167 33.925,393.092 33.667,393.000 33.667 C 392.908 33.667,392.833 33.479,392.833 33.250 C 392.833 32.991,392.739 32.833,392.583 32.833 C 392.444 32.833,392.333 32.685,392.333 32.500 C 392.333 32.317,392.258 32.167,392.167 32.167 C 392.075 32.167,392.000 32.092,392.000 32.001 C 392.000 31.743,391.298 31.000,391.053 31.000 C 390.932 31.000,390.833 30.920,390.833 30.821 C 390.833 30.591,390.409 30.167,390.179 30.167 C 390.080 30.167,390.000 30.092,390.000 30.000 C 390.000 29.908,389.858 29.833,389.684 29.833 C 389.511 29.833,389.326 29.721,389.273 29.583 C 389.220 29.446,389.025 29.333,388.839 29.333 C 388.652 29.333,388.500 29.258,388.500 29.167 C 388.500 29.075,388.238 29.000,387.917 29.000 C 387.596 29.000,387.333 28.925,387.333 28.833 C 387.333 28.742,386.915 28.667,386.405 28.667 C 385.802 28.667,385.389 28.579,385.226 28.417 C 385.011 28.201,383.829 28.167,376.655 28.167 C 369.369 28.167,368.333 28.198,368.333 28.417 M382.333 35.000 C 382.333 35.092,382.671 35.167,383.083 35.167 C 383.496 35.167,383.833 35.242,383.833 35.333 C 383.833 35.425,384.013 35.500,384.232 35.500 C 384.452 35.500,384.674 35.612,384.727 35.750 C 384.780 35.887,384.943 36.000,385.090 36.000 C 385.462 36.000,385.833 36.410,385.833 36.821 C 385.833 37.011,385.908 37.167,386.000 37.167 C 386.097 37.167,386.167 37.722,386.167 38.500 C 386.167 39.278,386.097 39.833,386.000 39.833 C 385.908 39.833,385.833 39.989,385.833 40.179 C 385.833 40.536,385.475 41.000,385.199 41.000 C 385.112 41.000,384.947 41.112,384.833 41.250 C 384.719 41.387,384.485 41.500,384.313 41.500 C 384.141 41.500,384.000 41.575,384.000 41.667 C 384.000 41.758,383.700 41.833,383.333 41.833 C 382.967 41.833,382.667 41.908,382.667 42.000 C 382.667 42.106,381.250 42.167,378.750 42.167 L 374.833 42.167 374.833 38.500 L 374.833 34.833 378.583 34.833 C 380.972 34.833,382.333 34.894,382.333 35.000 M316.458 54.181 C 316.006 54.676,316.017 61.313,316.471 61.724 C 316.879 62.093,323.562 62.132,324.042 61.768 C 324.480 61.435,324.484 54.680,324.046 54.169 C 323.615 53.665,316.919 53.676,316.458 54.181 " stroke="none" fill="#fbfbfc" fill-rule="evenodd"></path><path id="path2" d="M59.749 41.542 L 52.250 49.083 59.792 41.584 C 66.801 34.614,67.408 34.000,67.291 34.000 C 67.268 34.000,63.874 37.394,59.749 41.542 M70.333 36.417 C 71.201 37.287,71.948 38.000,71.993 38.000 C 72.039 38.000,71.367 37.287,70.500 36.417 C 69.633 35.546,68.886 34.833,68.840 34.833 C 68.794 34.833,69.466 35.546,70.333 36.417 M36.494 41.458 L 35.583 42.417 36.542 41.506 C 37.432 40.659,37.576 40.500,37.453 40.500 C 37.427 40.500,36.995 40.931,36.494 41.458 M34.906 43.042 L 34.417 43.583 34.958 43.094 C 35.463 42.638,35.577 42.500,35.448 42.500 C 35.419 42.500,35.175 42.744,34.906 43.042 M27.999 52.458 L 18.583 61.917 28.042 52.501 C 36.834 43.748,37.575 43.000,37.458 43.000 C 37.435 43.000,33.178 47.256,27.999 52.458 M33.740 44.208 L 33.250 44.750 33.792 44.260 C 34.090 43.991,34.333 43.748,34.333 43.719 C 34.333 43.590,34.196 43.703,33.740 44.208 M32.573 45.375 L 32.083 45.917 32.625 45.427 C 32.923 45.158,33.167 44.914,33.167 44.885 C 33.167 44.757,33.029 44.870,32.573 45.375 M31.406 46.542 L 30.917 47.083 31.458 46.594 C 31.963 46.138,32.077 46.000,31.948 46.000 C 31.919 46.000,31.675 46.244,31.406 46.542 M50.995 50.292 L 49.917 51.417 51.042 50.338 C 51.660 49.745,52.167 49.239,52.167 49.213 C 52.167 49.090,51.997 49.247,50.995 50.292 M47.249 52.640 C 47.431 52.855,47.730 53.108,47.915 53.203 C 48.269 53.384,48.217 53.328,47.418 52.664 C 46.937 52.265,46.931 52.264,47.249 52.640 M14.044 59.953 C 14.297 59.991,14.672 59.990,14.877 59.951 C 15.082 59.911,14.875 59.880,14.417 59.881 C 13.958 59.882,13.791 59.915,14.044 59.953 M9.209 65.083 C 9.211 65.450,9.245 65.580,9.285 65.373 C 9.324 65.166,9.323 64.866,9.281 64.706 C 9.239 64.547,9.207 64.717,9.209 65.083 M19.542 65.083 C 19.544 65.450,19.578 65.580,19.618 65.373 C 19.658 65.166,19.656 64.866,19.615 64.706 C 19.573 64.547,19.540 64.717,19.542 65.083 " stroke="none" fill="#96c9f4" fill-rule="evenodd"></path><path id="path3" d="M75.500 22.412 C 74.721 22.621,73.333 22.991,72.417 23.235 C 71.500 23.479,70.675 23.713,70.583 23.755 C 70.186 23.940,71.549 23.667,73.083 23.255 C 74.000 23.008,75.012 22.744,75.333 22.668 C 75.654 22.591,76.208 22.441,76.565 22.333 C 77.086 22.176,77.243 22.182,77.369 22.361 C 77.493 22.538,77.511 22.532,77.457 22.333 C 77.359 21.975,77.090 21.986,75.500 22.412 M77.106 22.851 C 76.480 24.973,76.169 26.175,76.181 26.433 C 76.188 26.607,76.450 25.856,76.762 24.762 C 77.075 23.669,77.295 22.740,77.252 22.697 C 77.210 22.654,77.144 22.723,77.106 22.851 M69.583 24.000 C 69.286 24.128,69.298 24.144,69.698 24.155 C 69.945 24.161,70.193 24.092,70.250 24.000 C 70.373 23.801,70.046 23.801,69.583 24.000 M67.583 24.496 C 67.033 24.660,66.171 24.915,65.667 25.063 C 64.712 25.343,65.256 25.311,66.417 25.019 C 68.611 24.467,69.043 24.346,69.128 24.261 C 69.302 24.087,68.593 24.195,67.583 24.496 M63.667 25.539 C 62.010 26.025,61.617 26.164,62.083 26.100 C 62.810 25.999,64.498 25.558,64.619 25.437 C 64.763 25.293,64.357 25.336,63.667 25.539 M60.789 26.375 C 60.749 26.490,61.961 27.842,63.483 29.379 C 65.005 30.917,66.270 32.233,66.294 32.304 C 66.350 32.465,48.216 50.583,48.000 50.583 C 47.915 50.583,45.554 48.302,42.754 45.514 L 37.663 40.446 37.248 40.835 C 37.020 41.049,36.833 41.262,36.833 41.308 C 36.833 41.354,37.012 41.223,37.231 41.018 L 37.629 40.644 42.737 45.739 C 45.547 48.541,47.934 50.833,48.042 50.833 C 48.307 50.833,66.500 32.645,66.500 32.379 C 66.500 32.263,65.234 30.893,63.687 29.334 C 62.140 27.775,60.973 26.500,61.094 26.500 C 61.215 26.500,61.360 26.425,61.417 26.333 C 61.473 26.242,61.371 26.167,61.190 26.167 C 61.009 26.167,60.829 26.260,60.789 26.375 M75.955 26.934 C 75.888 27.001,75.838 27.249,75.844 27.486 L 75.854 27.917 76.015 27.514 C 76.189 27.081,76.153 26.736,75.955 26.934 M75.503 28.692 C 75.401 29.090,75.246 29.634,75.159 29.900 C 75.071 30.166,75.005 30.541,75.012 30.733 C 75.019 30.926,75.208 30.416,75.431 29.600 C 75.655 28.784,75.805 28.082,75.763 28.041 C 75.722 28.000,75.605 28.293,75.503 28.692 M74.778 31.278 C 74.717 31.339,74.673 31.583,74.681 31.819 C 74.695 32.242,74.698 32.241,74.842 31.758 C 74.994 31.251,74.971 31.084,74.778 31.278 M74.333 33.025 C 74.156 33.704,74.022 34.179,73.652 35.428 C 73.568 35.710,73.505 36.085,73.512 36.262 C 73.518 36.439,73.620 36.246,73.739 35.833 C 74.438 33.405,74.676 32.454,74.604 32.382 C 74.559 32.337,74.437 32.626,74.333 33.025 M57.998 43.084 C 52.728 48.356,48.278 52.713,48.108 52.768 C 47.869 52.844,46.661 51.726,42.699 47.758 L 37.599 42.649 27.945 52.307 C 20.928 59.327,18.330 62.026,18.434 62.191 C 18.543 62.364,18.589 62.340,18.635 62.083 C 18.697 61.734,37.295 43.000,37.579 43.000 C 37.669 43.000,40.052 45.305,42.874 48.122 L 48.006 53.243 57.837 43.413 L 67.669 33.583 70.193 36.133 C 72.786 38.753,73.066 38.924,73.213 37.971 C 73.260 37.666,73.345 37.229,73.401 37.000 C 73.487 36.651,73.464 36.664,73.259 37.083 C 73.125 37.358,73.012 37.748,73.008 37.948 C 72.999 38.377,72.683 38.629,72.509 38.347 C 72.325 38.050,67.790 33.500,67.677 33.500 C 67.623 33.500,63.267 37.813,57.998 43.084 M36.039 42.005 C 35.740 42.277,35.557 42.500,35.633 42.500 C 35.709 42.500,35.987 42.275,36.250 42.000 C 36.863 41.361,36.744 41.363,36.039 42.005 M34.872 43.172 C 34.573 43.444,34.390 43.667,34.466 43.667 C 34.542 43.667,34.820 43.442,35.083 43.167 C 35.696 42.527,35.578 42.530,34.872 43.172 M33.706 44.338 C 33.406 44.611,33.224 44.833,33.300 44.833 C 33.375 44.833,33.653 44.608,33.917 44.333 C 34.529 43.694,34.411 43.697,33.706 44.338 M32.539 45.505 C 32.240 45.777,32.057 46.000,32.133 46.000 C 32.209 46.000,32.487 45.775,32.750 45.500 C 33.363 44.861,33.244 44.863,32.539 45.505 M31.372 46.672 C 31.073 46.944,30.890 47.167,30.966 47.167 C 31.042 47.167,31.320 46.942,31.583 46.667 C 32.196 46.027,32.078 46.030,31.372 46.672 M30.186 47.836 C 29.875 48.110,29.693 48.333,29.780 48.333 C 29.867 48.333,30.153 48.108,30.417 47.833 C 31.029 47.194,30.913 47.195,30.186 47.836 M29.019 49.003 C 28.709 49.276,28.526 49.500,28.613 49.500 C 28.700 49.500,28.987 49.275,29.250 49.000 C 29.863 48.361,29.746 48.362,29.019 49.003 M27.852 50.169 C 27.542 50.443,27.359 50.667,27.446 50.667 C 27.533 50.667,27.820 50.442,28.083 50.167 C 28.696 49.527,28.579 49.529,27.852 50.169 M26.686 51.336 C 26.375 51.610,26.193 51.833,26.280 51.833 C 26.367 51.833,26.653 51.608,26.917 51.333 C 27.529 50.694,27.413 50.695,26.686 51.336 M25.519 52.503 C 25.209 52.776,25.026 53.000,25.113 53.000 C 25.200 53.000,25.487 52.775,25.750 52.500 C 26.363 51.861,26.246 51.862,25.519 52.503 M24.352 53.669 C 24.042 53.943,23.859 54.167,23.946 54.167 C 24.033 54.167,24.320 53.942,24.583 53.667 C 25.196 53.027,25.079 53.029,24.352 53.669 M20.509 57.500 C 17.121 60.866,17.186 60.822,16.317 60.375 C 14.562 59.472,11.611 60.314,10.327 62.083 C 10.194 62.267,10.434 62.103,10.859 61.720 C 12.453 60.286,14.809 59.779,16.283 60.553 C 17.177 61.023,17.311 60.932,20.656 57.580 C 22.438 55.794,23.851 54.333,23.796 54.333 C 23.741 54.333,22.262 55.758,20.509 57.500 M9.712 63.099 C 9.185 64.271,9.524 68.198,10.102 67.620 C 10.156 67.566,10.137 67.423,10.060 67.303 C 9.339 66.176,9.339 63.991,10.060 62.864 C 10.137 62.743,10.156 62.600,10.102 62.547 C 10.048 62.493,9.873 62.742,9.712 63.099 M19.114 63.333 C 19.266 63.873,19.266 66.294,19.114 66.833 C 19.021 67.163,19.047 67.146,19.241 66.750 C 19.384 66.456,19.485 65.770,19.485 65.083 C 19.485 64.397,19.384 63.711,19.241 63.417 C 19.047 63.021,19.021 63.004,19.114 63.333 M10.388 68.181 C 10.854 68.895,12.995 70.228,13.256 69.966 C 13.300 69.923,13.024 69.784,12.643 69.659 C 12.262 69.533,11.536 69.052,11.029 68.590 C 10.467 68.078,10.217 67.918,10.388 68.181 M17.957 68.479 C 17.390 69.077,16.097 69.833,15.641 69.833 C 15.533 69.833,15.492 69.881,15.550 69.939 C 15.828 70.217,17.924 68.979,18.395 68.259 C 18.781 67.670,18.671 67.725,17.957 68.479 M14.042 70.119 C 14.294 70.158,14.706 70.158,14.958 70.119 C 15.210 70.081,15.004 70.050,14.500 70.050 C 13.996 70.050,13.790 70.081,14.042 70.119 " stroke="none" fill="#bcdcfc" fill-rule="evenodd"></path><path id="path4" d="M60.558 26.257 C 60.503 26.399,60.506 26.561,60.563 26.618 C 60.620 26.675,60.667 26.603,60.667 26.457 C 60.667 26.311,60.798 26.157,60.958 26.115 C 61.232 26.043,61.231 26.037,60.953 26.019 C 60.790 26.009,60.612 26.116,60.558 26.257 M62.833 28.885 C 62.833 28.914,63.077 29.158,63.375 29.427 L 63.917 29.917 63.427 29.375 C 62.971 28.870,62.833 28.757,62.833 28.885 M61.082 37.542 L 56.083 42.583 61.125 37.584 C 63.898 34.835,66.167 32.566,66.167 32.543 C 66.167 32.425,65.728 32.856,61.082 37.542 M37.067 40.708 L 36.750 41.083 37.119 40.771 C 37.323 40.599,37.606 40.505,37.752 40.561 C 37.906 40.620,37.974 40.593,37.915 40.498 C 37.747 40.226,37.404 40.311,37.067 40.708 M41.750 44.500 C 43.765 46.517,45.451 48.167,45.497 48.167 C 45.543 48.167,43.932 46.517,41.917 44.500 C 39.902 42.483,38.215 40.833,38.170 40.833 C 38.124 40.833,39.735 42.483,41.750 44.500 M54.829 43.792 L 53.750 44.917 54.875 43.838 C 55.920 42.836,56.076 42.667,55.954 42.667 C 55.928 42.667,55.422 43.173,54.829 43.792 M36.240 44.375 L 35.750 44.917 36.292 44.427 C 36.797 43.971,36.910 43.833,36.781 43.833 C 36.752 43.833,36.509 44.077,36.240 44.375 M35.073 45.542 L 34.583 46.083 35.125 45.594 C 35.630 45.138,35.743 45.000,35.615 45.000 C 35.586 45.000,35.342 45.244,35.073 45.542 M53.073 45.542 L 52.583 46.083 53.125 45.594 C 53.630 45.138,53.743 45.000,53.615 45.000 C 53.586 45.000,53.342 45.244,53.073 45.542 M33.906 46.708 L 33.417 47.250 33.958 46.760 C 34.463 46.304,34.577 46.167,34.448 46.167 C 34.419 46.167,34.175 46.410,33.906 46.708 M51.906 46.708 L 51.417 47.250 51.958 46.760 C 52.463 46.304,52.577 46.167,52.448 46.167 C 52.419 46.167,52.175 46.410,51.906 46.708 M32.740 47.875 L 32.250 48.417 32.792 47.927 C 33.297 47.471,33.410 47.333,33.281 47.333 C 33.252 47.333,33.009 47.577,32.740 47.875 M50.740 47.875 L 50.250 48.417 50.792 47.927 C 51.297 47.471,51.410 47.333,51.281 47.333 C 51.252 47.333,51.009 47.577,50.740 47.875 M45.667 48.385 C 45.667 48.414,45.910 48.658,46.208 48.927 L 46.750 49.417 46.260 48.875 C 45.804 48.370,45.667 48.257,45.667 48.385 M31.573 49.042 L 31.083 49.583 31.625 49.094 C 31.923 48.825,32.167 48.581,32.167 48.552 C 32.167 48.423,32.029 48.537,31.573 49.042 M46.833 49.552 C 46.833 49.581,47.077 49.825,47.375 50.094 L 47.917 50.583 47.427 50.042 C 46.971 49.537,46.833 49.423,46.833 49.552 M30.406 50.208 L 29.917 50.750 30.458 50.260 C 30.963 49.804,31.077 49.667,30.948 49.667 C 30.919 49.667,30.675 49.910,30.406 50.208 M48.406 50.208 L 47.917 50.750 48.458 50.260 C 48.963 49.804,49.077 49.667,48.948 49.667 C 48.919 49.667,48.675 49.910,48.406 50.208 M29.240 51.375 L 28.750 51.917 29.292 51.427 C 29.590 51.158,29.833 50.914,29.833 50.885 C 29.833 50.757,29.696 50.870,29.240 51.375 M28.073 52.542 L 27.583 53.083 28.125 52.594 C 28.630 52.138,28.743 52.000,28.615 52.000 C 28.586 52.000,28.342 52.244,28.073 52.542 M26.906 53.708 L 26.417 54.250 26.958 53.760 C 27.256 53.491,27.500 53.248,27.500 53.219 C 27.500 53.090,27.362 53.203,26.906 53.708 M25.740 54.875 L 25.250 55.417 25.792 54.927 C 26.297 54.471,26.410 54.333,26.281 54.333 C 26.252 54.333,26.009 54.577,25.740 54.875 M21.833 58.750 C 20.048 60.538,18.624 62.000,18.670 62.000 C 18.716 62.000,20.214 60.538,22.000 58.750 C 23.786 56.962,25.209 55.500,25.163 55.500 C 25.118 55.500,23.619 56.962,21.833 58.750 M17.408 60.348 C 17.346 60.448,17.154 60.492,16.981 60.447 C 16.808 60.401,16.708 60.432,16.760 60.516 C 16.902 60.745,17.268 60.696,17.500 60.417 C 17.614 60.279,17.665 60.167,17.614 60.167 C 17.562 60.167,17.469 60.248,17.408 60.348 M10.573 61.542 L 10.083 62.083 10.625 61.594 C 10.923 61.325,11.167 61.081,11.167 61.052 C 11.167 60.923,11.029 61.037,10.573 61.542 M17.991 68.792 L 17.417 69.417 18.042 68.842 C 18.385 68.526,18.667 68.245,18.667 68.217 C 18.667 68.090,18.526 68.210,17.991 68.792 M10.333 68.385 C 10.333 68.414,10.577 68.658,10.875 68.927 L 11.417 69.417 10.927 68.875 C 10.471 68.370,10.333 68.257,10.333 68.385 " stroke="none" fill="#84c4f4" fill-rule="evenodd"></path></g></svg>