<svg xmlns="http://www.w3.org/2000/svg" width="18831" height="4000" viewBox="0 0 18831 4000">
  <defs>
    <style>
      .cls-1 {
        fill: #66b0f1;
      }

      .cls-1, .cls-2 {
        fill-rule: evenodd;
      }

      .cls-2 {
        fill: #fff;
      }
    </style>
  </defs>
  <path id="Cercle.svg" class="cls-1" d="M2000.06,15.7c1092.2,0,1977.6,888.612,1977.6,1984.775s-885.4,1984.77-1977.6,1984.77S22.447,3096.64,22.447,2000.48,907.853,15.7,2000.06,15.7Z"/>
  <path class="cls-2" d="M652.848,2663.26c124.23,0,224.939,100.44,224.939,224.33s-100.709,224.34-224.939,224.34-224.94-100.44-224.94-224.34S528.617,2663.26,652.848,2663.26Z"/>
  <path id="G-PERF" class="cls-1" d="M5740.3,2207.82v246.43q-132.54,32.79-294.55,32.79-236.79,0-378.95-125.33-142.185-125.34-142.18-362.25,0-231.615,139.35-354.84,139.35-123.195,363.66-123.21,240.165,0,436.16,136.43,60.03,42.315,95.16-17.98l104.23-171.33q31.695-57.12-20.39-90.96-125.76-80.37-284.36-126.39-158.625-46.005-330.8-46.01a1173.778,1173.778,0,0,0-212.42,19.04,1154.163,1154.163,0,0,0-204.49,57.64,737.675,737.675,0,0,0-185.22,103.12,775.635,775.635,0,0,0-148.98,150.19q-64.575,85.665-100.83,204.65t-36.25,259.65q0,140.685,36.25,260.18,36.255,119.535,100.83,204.66a795.705,795.705,0,0,0,148.98,150.18,727.38,727.38,0,0,0,185.22,103.65,1152.472,1152.472,0,0,0,204.49,57.64,1173.778,1173.778,0,0,0,212.42,19.04q385.155,0,619.69-121.63,46.44-24.315,46.45-76.15V1982.54q0-30.66-18.7-48.12t-51.54-17.45H5387.98q-32.88,0-50.98,17.45-18.135,17.445-18.13,48.12v159.7q0,30.69,18.13,48.13,18.1,17.445,50.98,17.45H5740.3Zm663.88-95.19q0,64.53,69.1,64.52h763.57q69.09,0,69.11-64.52V1930.72q0-30.675-18.13-48.13t-50.98-17.45H6473.28q-32.865,0-50.98,17.45-18.135,17.46-18.12,48.13v181.91Zm1399.11-871.5q-32.865,0-51.54,17.45-18.69,17.46-18.69,48.13V2693.28q0,30.69,18.69,47.59,18.69,16.935,51.54,16.92h226.58q32.85,0,51.55-16.92,18.69-16.9,18.69-47.59V2261.76h203.92q172.185,0,308.71-27.5t245.27-86.73q108.765-59.22,168.24-163.93t59.47-248.55q0-113.16-39.65-199.89t-106.49-141.73q-66.855-54.975-165.97-89.9a1003.634,1003.634,0,0,0-207.88-48.65q-108.765-13.725-241.31-13.75H7803.29Zm296.82,708.62V1553.14h203.92q84.975,0,151.24,7.93t123.49,28.03q57.195,20.1,88.36,57.64,31.155,37.56,31.16,92.54,0,104.715-100.83,157.59-100.845,52.905-293.42,52.88H8100.11Zm2628.29-643.04q0-30.675-18.7-48.13-18.6-17.445-51.5-17.45H9557.01q-32.88,0-51.55,17.45-18.69,17.46-18.69,48.13V2693.28q0,30.69,18.69,47.59,18.69,16.935,51.55,16.92H10653.6q32.85,0,51.6-16.92,18.75-16.9,18.7-47.59V2511.36q0-30.66-18.7-48.12-18.75-17.445-51.6-17.45H9853.82V2127.44h681.98q69.15,0,69.1-64.52V1900.04q0-64.5-69.1-64.51H9853.82V1553.14h804.38q32.85,0,51.5-16.93,18.75-16.9,18.7-47.59V1306.71ZM12208,2149.65q347.7-116.34,347.8-448.44,0-460.08-759.1-460.08h-521.1q-32.85,0-51.5,17.45-18.75,17.46-18.7,48.13V2693.28q0,30.69,18.7,47.59,18.6,16.935,51.5,16.92h226.6q32.85,0,51.5-16.92,18.75-16.9,18.7-47.59V2207.82h250.4l356.8,508.72q29.55,41.25,83.9,41.25h280.9q42,0,56.1-22.21t-9.6-56.05Zm-431.7-596.51c31.8,0,60.4.71,86.1,2.11q38.55,2.13,87.3,7.41c32.4,3.53,60.8,9.17,84.9,16.92a395.363,395.363,0,0,1,69.1,29.61c21.9,12,38.6,27.68,49.9,47.07s17,41.43,17,66.1q0,94.14-100.8,142.25-100.95,48.15-293.5,48.13h-203.9v-359.6h203.9Zm2418.8-246.43q0-30.675-18.2-48.13-18.15-17.445-51-17.45h-981q-32.85,0-51.6,17.45c-12.4,11.64-18.7,27.68-18.7,48.13V2693.28c0,20.46,6.3,36.32,18.7,47.59q18.75,16.935,51.6,16.92h226.5q32.85,0,51.6-16.92,18.75-16.9,18.7-47.59V2140.13H14007q32.85,0,51.5-16.92,18.75-16.9,18.7-47.6V1900.04q0-30.66-18.7-47.59-18.6-16.9-51.5-16.92h-565.3V1553.14h684.2q69.15,0,69.2-64.52V1306.71Z"/>
  <path id="_.FR" data-name=".FR" class="cls-2" d="M14696.1,2712.78q64.5-65.055,64.5-156.03,0-89.895-64.5-154.42t-154.4-64.53q-91.05,0-156.1,64.53-64.95,64.515-65,154.42,0,90.975,65,156.03,65.1,65.04,156.1,65.04Q14631.55,2777.82,14696.1,2712.78Zm1603.4-1425.31q0-30.675-16.9-48.11c-11.3-11.65-27.1-17.47-47.6-17.47h-916c-20.4,0-36.5,5.82-48.1,17.47q-17.55,17.46-17.5,48.11v1386.7q0,30.675,17.5,47.6c11.6,11.28,27.7,16.92,48.1,16.92h211.6q30.6,0,48.1-16.92,17.4-16.935,17.4-47.6v-553.2h527.8c20.5,0,36.5-5.64,48.2-16.92q17.4-16.92,17.4-47.59v-175.6q0-30.66-17.4-47.59c-11.7-11.28-27.7-16.92-48.2-16.92h-527.8V1533.92H16235q64.5,0,64.5-64.51V1287.47Zm1320,843.02q324.6-116.34,324.7-448.48,0-460.11-708.7-460.12h-486.6c-20.4,0-36.5,5.82-48.1,17.47s-17.4,27.66-17.4,48.11v1386.7q0,30.675,17.4,47.6c11.6,11.28,27.7,16.92,48.1,16.92h211.6c20.4,0,36.5-5.64,48.1-16.92s17.5-27.15,17.5-47.6v-485.5h233.7l333.2,508.77q27.45,41.265,78.3,41.25h262.3c26.1,0,43.5-7.4,52.4-22.21q13.2-22.2-9-56.07Zm-403-596.57q44.4,0,80.3,2.12,36,2.13,81.5,7.42c30.3,3.52,56.8,9.16,79.3,16.92a354.812,354.812,0,0,1,64.5,29.61q30.75,18,46.6,47.07,15.9,29.1,15.9,66.1,0,94.155-94.2,142.27-94.2,48.135-273.9,48.13h-190.4V1533.92h190.4Z"/>
  <path id="Fond_2" data-name="Fond 2" class="cls-2" d="M2951.58,1440.5c5.64,2.72,8.53,9.07,13,13q20.25,20.505,40.5,41l-871.02,870q-78.24-77.985-156.51-156-150.735-150.99-301.5-302h-1q-422.97,423.7-846.027,847.5c-2.674-6.02-11.026-11-16-15-13.75-11.05-25.38-27.84-41-36.5,0.167-.33.334-0.67,0.5-1,8.438-3.3,15.809-14.81,22-21q24.748-24.75,49.5-49.5,86.994-86.985,174.007-174l657.52-656.5c8.86,3.7,29.21,29.14,37.5,37q43.74,43.5,87.5,87,166.74,166.23,333.51,332.5h1Q2543.285,1848.79,2951.58,1440.5Z"/>
  <path id="Fond_1" data-name="Fond 1" class="cls-2" d="M3435.6,981.5c0.66,0.333,1.33.667,2,1-9.86,28.09-16.55,59.11-25.01,89q-34.245,126.24-68.5,252.5-55.245,202.98-110.5,406c-7.94-2.62-35.77-35.74-43.5-43.5q-46.245-46.74-92.5-93.5-142.245-143.73-284.51-287.5-61.995-63-124.01-126,271.74-72,543.52-144,72.75-19.245,145.5-38.5C3390.55,993.2,3427.88,987.805,3435.6,981.5Z"/>
</svg>
